<?xml version="1.0" encoding="UTF-8" standalone="no"?>
<!-- Created with Inkscape (http://www.inkscape.org/) -->

<svg
   version="1.1"
   id="svg1"
   width="1587.36"
   height="1122.5601"
   viewBox="0 0 1587.36 1122.5601"
   xmlns="http://www.w3.org/2000/svg"
   xmlns:svg="http://www.w3.org/2000/svg">
  <defs
     id="defs1">
    <clipPath
       clipPathUnits="userSpaceOnUse"
       id="clipPath2">
      <path
         d="M 0,0.32 V 1122.5601 H 1587.04 V 0.32 Z"
         transform="translate(-1184.16,-591.68)"
         clip-rule="evenodd"
         id="path2" />
    </clipPath>
    <clipPath
       clipPathUnits="userSpaceOnUse"
       id="clipPath4">
      <path
         d="M 0,0.32 V 1122.5601 H 1587.04 V 0.32 Z"
         transform="translate(-1184.16,-366.56)"
         clip-rule="evenodd"
         id="path4" />
    </clipPath>
    <clipPath
       clipPathUnits="userSpaceOnUse"
       id="clipPath6">
      <path
         d="M 129.60001,355.20001 H 1200.96 V 616 H 129.60001 Z"
         clip-rule="evenodd"
         id="path6" />
    </clipPath>
    <clipPath
       clipPathUnits="userSpaceOnUse"
       id="clipPath8">
      <path
         d="M -69.120003,-211.36 H 165.92 V 49.439999 H -69.120003 Z"
         transform="translate(-4.4e-5)"
         clip-rule="evenodd"
         id="path8" />
    </clipPath>
  </defs>
  <g
     id="g1">
    <path
       id="path1"
       d="M 0,0 V -225.11999 -226.88 l 0.16,-1.92 0.32,-1.76 0.32,-1.76001 0.48,-1.75999 0.64,-1.76 0.64,-1.76001 0.8,-1.59999 0.96,-1.6 0.96,-1.44 1.12,-1.6 1.12,-1.27999 1.28,-1.44001 1.28,-1.11999 1.44,-1.28002 1.44,-0.95999 1.6,-1.11999 1.6,-0.80001 1.6,-0.8 1.76,-0.8 1.600001,-0.48 1.759998,-0.47999 1.92,-0.48001 1.76,-0.32 1.760001,-0.16 h 1.92 253.76 1.92001 l 1.91999,0.32001 1.76001,0.15999 1.91998,0.48001 1.76001,0.47999 1.76001,0.64 1.75998,0.8 1.76001,0.80001 1.6,0.95999 1.60001,1.11999 1.44,1.12001 1.44,1.28 1.43998,1.44001 1.12002,1.43998 1.28,1.44001 0.95999,1.6 0.95999,1.60001 0.96,1.75999 0.80001,1.59999 0.63999,1.92002 0.48001,1.75999 0.48001,1.92 0.16,1.75999 0.15998,1.92002 0.16,1.92 V 0 1.76 l -0.31998,1.76 -0.16,1.92 -0.48001,1.76 -0.48001,1.76 -0.47998,1.76 -0.80002,1.6 -0.79999,1.6 -0.79999,1.6 -1.12002,1.600001 L 307.84,18.559999 306.56,20 305.44,21.280001 304,22.559999 302.56,23.68 l -1.44,1.119999 -1.44001,0.960001 -1.6,0.959999 -1.75998,0.800001 -1.60001,0.64 -1.76001,0.639999 -1.75998,0.480002 L 289.44,29.6 287.67999,29.92 285.76001,30.08 284,30.24 H 30.24 l -1.92,-0.16 -1.760001,-0.16 -1.76,-0.32 -1.92,-0.319999 L 21.120001,28.799999 19.52,28.16 17.76,27.52 16.16,26.719999 14.56,25.76 12.96,24.799999 11.52,23.68 10.08,22.559999 8.8,21.280001 7.52,20 6.4,18.559999 5.28,17.120001 4.32,15.52 3.36,13.92 2.56,12.32 1.92,10.72 1.28,8.96 0.8,7.2 0.48,5.44 0.16,3.52 0,1.76 Z"
       style="fill:#ff7f00;fill-opacity:1;fill-rule:evenodd;stroke:#ff7f00;stroke-width:0.5;stroke-linecap:round;stroke-linejoin:round;stroke-miterlimit:10;stroke-dasharray:none;stroke-opacity:1"
       transform="translate(1184.16,591.67999)"
       clip-path="url(#clipPath2)" />
    <path
       id="path3"
       d="m 0,0 v -1.76 l 0.16,-1.92 0.32,-1.76 0.32,-1.76 0.48,-1.76 0.64,-1.76 0.64,-1.76 0.8,-1.6 0.96,-1.6 0.96,-1.440001 L 6.4,-18.719999 7.52,-20 l 1.28,-1.440001 1.28,-1.119998 1.44,-1.280001 1.44,-0.959999 1.6,-1.120001 1.6,-0.799999 1.6,-0.800001 1.76,-0.8 1.600001,-0.479999 1.759998,-0.480002 1.92,-0.479999 1.76,-0.32 1.760001,-0.16 h 1.92 253.76 1.92001 l 1.91999,0.32 1.76001,0.16 1.91998,0.479999 1.76001,0.480002 1.76001,0.639999 1.75998,0.799999 1.76001,0.800002 1.6,0.959999 1.60001,1.12 1.44,1.119999 1.44,1.280001 1.43998,1.440001 1.12002,1.439998 1.28,1.440001 0.95999,1.6 0.95999,1.6 0.96,1.76 0.80001,1.6 0.63999,1.92 0.48001,1.76 0.48001,1.92 0.16,1.76 0.15998,1.92 0.16,1.92 V 225.11999 226.88 l -0.31998,1.76 -0.16,1.92 -0.48001,1.76001 -0.48001,1.75999 -0.47998,1.76 -0.80002,1.6 -0.79999,1.59999 -0.79999,1.60001 -1.12002,1.6 -0.95999,1.43999 -1.28,1.44 -1.12,1.28 -1.44,1.28 -1.44,1.12001 -1.44,1.12 -1.44001,0.96 -1.6,0.96 -1.75998,0.8 -1.60001,0.64 -1.76001,0.64 -1.75998,0.47999 L 289.44,254.72 287.67999,255.03999 285.76001,255.2 284,255.36 H 30.24 l -1.92,-0.16 -1.760001,-0.16001 -1.76,-0.31999 -1.92,-0.32001 L 21.120001,253.92 19.52,253.28 l -1.76,-0.64 -1.6,-0.8 -1.6,-0.96 -1.6,-0.96 -1.44,-1.12 -1.44,-1.12001 -1.28,-1.28 -1.28,-1.28 -1.12,-1.44 L 5.28,242.24 4.32,240.64 3.36,239.03999 2.56,237.44 1.92,235.84 1.28,234.08 0.8,232.32001 0.48,230.56 0.16,228.64 0,226.88 V 225.11999 0"
       style="fill:none;stroke:#ffffff;stroke-width:1.76;stroke-linecap:round;stroke-linejoin:round;stroke-miterlimit:10;stroke-dasharray:none;stroke-opacity:1"
       transform="translate(1184.16,366.55999)"
       clip-path="url(#clipPath4)" />
    <path
       id="path5"
       d="m 242.56,505.12 29.92001,10.40002 c -4.58002,18.25 -12.19,31.79999 -22.83002,40.64996 -10.64,8.86005 -24.14,13.27002 -40.50999,13.27002 -20.24001,0 -36.87,-7.57001 -49.91,-22.72998 -13.03,-15.16003 -19.55001,-35.88003 -19.55001,-62.18002 0,-27.79999 6.55001,-49.4 19.65001,-64.79999 13.09999,-15.38 30.31,-23.08002 51.65,-23.09 18.63999,0.01 33.77999,6.03998 45.41999,18.09 C 263.34,421.87 268.54001,432.10001 272,445.44 l -30.39999,8 C 239.8,444.79999 236.03,437.98001 230.31,432.95999 c -5.72,-5 -12.68,-7.50998 -20.87,-7.51999 -11.3,0.01 -20.47999,4.45999 -27.52,13.35001 -7.04,8.89999 -10.56,23.31 -10.56,43.22998 0,21.15002 3.47,36.20999 10.39,45.17001 6.92999,8.97998 15.94,13.46002 27.03,13.45001 8.18001,0.01 15.21,-2.84002 21.1,-8.55999 C 235.77,526.38 240,517.39001 242.56,505.12 Z m 30.39999,-59.68 H 304 l 26.48001,85.97998 25.84,-85.97998 H 386.56 l -38.95001,116.53998 -7.03998,21.05005 c -2.56,7.07996 -5.01001,12.48999 -7.34,16.21997 -2.32001,3.72998 -5,6.75 -8.02002,9.07001 -3.01999,2.32 -6.72998,4.13 -11.13998,5.41998 -4.41001,1.29999 -9.39002,1.94 -14.95001,1.94 -5.62,0 -11.13999,-0.64001 -16.56,-1.94 l -2.56,-25.13 c 4.57999,0.98004 8.70999,1.47003 12.39001,1.47003 6.79999,0 11.84,-2.17005 15.09998,-6.53003 C 310.75,579.19 313.25,573.64001 314.98001,566.88 Z M 395.20001,566.56 V 399.35999 h 29.28 V 459.59 c 9.00998,-11.23999 19.67999,-16.85999 32,-16.87 13.44,0.01 24.56,5.35001 33.35999,16.03 8.80001,10.67999 13.20001,26.01999 13.20001,46 0,20.67999 -4.48001,36.60998 -13.46002,47.78003 -8.97,11.17999 -19.85999,16.75 -32.68,16.75 -6.29998,0 -12.51999,-1.72003 -18.64999,-5.17004 -6.13,-3.44001 -11.41,-8.54999 -15.85001,-15.32996 V 566.56 Z M 424,503.38 c 0,12.56 1.81,21.83997 5.42999,27.83997 5.09,8.53003 11.85001,12.79004 20.28,12.78003 6.48001,0.01 12.01001,-3.01001 16.57001,-9.06 4.56,-6.03998 6.84,-15.57001 6.84,-28.58999 0,-13.84 -2.29999,-23.82001 -6.9,-29.95002 -4.6,-6.11999 -10.48001,-9.19 -17.66,-9.19998 -7.04001,0.01 -12.88999,3 -17.56,8.97 -4.66,5.97998 -7,15.04999 -7,27.20999 z m 156.47998,24.62 29.12,5.28003 c -3.74,11.73999 -9.64997,20.67999 -17.72999,26.81 -8.08001,6.13995 -18.17999,9.19 -30.32,9.19 -19.20001,0 -33.40998,-6.87006 -42.63001,-20.63001 C 511.64001,537.63 508,523.71997 508,506.92001 c 0,-20.06002 4.78998,-35.77002 14.35998,-47.14001 9.57001,-11.35999 21.67005,-17.04999 36.29999,-17.06 16.44001,0.01 29.41004,5.95999 38.91004,17.84 9.5,11.89999 14.04999,30.11001 13.63,54.64001 h -73.28003 c 0.21002,9.51001 2.57001,16.89997 7.08002,22.16998 4.51001,5.28003 10.13,7.91999 16.84998,7.91004 4.58001,0.01 8.43005,-1.35004 11.55004,-4.08002 3.12,-2.72003 5.47998,-7.11999 7.07996,-13.20001 z m 1.76001,-32.48001 c -0.20996,-9.23999 -2.39996,-16.26999 -6.57001,-21.09 -4.16998,-4.80999 -9.25,-7.22 -15.22998,-7.22998 -6.39001,0.01 -11.66998,2.54999 -15.84997,7.62 C 540.41998,479.91 538.36999,486.81 538.44,495.51999 Z M 654.08002,566.56 H 624.79999 V 445.44 H 652 v 17.22 c 4.64001,-8.11999 8.81,-13.48001 12.51001,-16.05999 3.70001,-2.58002 7.89996,-3.87 12.59998,-3.88001 6.65002,0.01 13.04998,2.03 19.21002,6.06 l -9.03998,27.98999 c -4.91004,-3.48999 -9.48004,-5.23999 -13.70001,-5.25 -4.08002,0.01 -7.53003,1.25 -10.37,3.71002 -2.84003,2.47998 -5.07001,6.94 -6.69,13.38999 -1.62,6.45999 -2.44,19.98999 -2.44,40.57 z m 48.63995,0 V 399.35999 H 732 V 566.56 Z m 47.68005,-62.26999 c 0,-10.63001 2.39997,-20.93002 7.18,-30.89002 4.78997,-9.94998 11.57,-17.54998 20.34997,-22.79998 8.78003,-5.24002 18.58002,-7.87 29.40003,-7.88001 16.72998,0.01 30.44,5.95999 41.11999,17.85001 10.69,11.89999 16.02997,26.92999 16.02997,45.08999 0,18.32999 -5.38995,33.51999 -16.17999,45.55997 -10.78998,12.05005 -24.38001,18.06006 -40.76001,18.06006 -10.13001,0 -19.78998,-2.5 -28.98999,-7.52002 -9.19001,-5.01001 -16.18,-12.35999 -20.96997,-22.06 -4.78003,-9.67999 -7.18,-21.48999 -7.18,-35.41 z M 780.32001,506 c 0,12.03003 2.60998,21.23999 7.82,27.62 5.20997,6.40002 11.63001,9.59002 19.26996,9.58001 7.64002,0.01 14.05005,-3.17999 19.23004,-9.58001 5.18,-6.38001 7.76001,-15.65998 7.76001,-27.84 0,-11.85999 -2.58001,-20.98999 -7.76001,-27.38999 -5.17999,-6.38 -11.59002,-9.58001 -19.23004,-9.59002 -7.63995,0.01 -14.05999,3.21002 -19.26996,9.59002 -5.21002,6.4 -7.82,15.59998 -7.82,27.60999 z M 874.56,574.40002 908,578.88 c 0.56,4.29999 1.84003,7.26001 3.84003,8.87 2.77997,2.29999 7.13995,3.45001 13.09997,3.45001 7.63001,0 13.34998,-1.25 17.15998,-3.77002 2.57,-1.67999 4.51001,-4.39001 5.82,-8.13 0.91004,-2.66999 1.36005,-7.58997 1.36005,-14.76996 l 0.13995,-17.74005 c -8.78998,13.19 -19.83996,19.77002 -33.13995,19.77002 -14.82001,0 -26.56006,-6.87 -35.22003,-20.64002 -6.77997,-10.85998 -10.18,-24.38995 -10.18,-40.58999 0,-20.28998 4.45002,-35.79999 13.34998,-46.51999 8.90002,-10.72 19.97003,-16.07999 33.19,-16.09 13.65003,0.01 24.91004,6.57999 33.78003,19.70001 V 445.44 H 978.56 v 108.66999 c 0,14.29998 -1.07001,24.98004 -3.22998,32.04998 -2.15003,7.07001 -5.17005,12.62006 -9.06,16.64002 -3.88001,4.03003 -9.07001,7.17999 -15.56,9.46002 -6.49005,2.27997 -14.70001,3.41998 -24.61999,3.41998 -18.74005,0 -32.03003,-3.52002 -39.87006,-10.57 C 878.38,598.06 874.45001,589.12 874.45001,578.28998 c 0,-1.06 0.04,-2.35999 0.10999,-3.88996 z M 900.79999,503.47 c 0,12.86002 2.27002,22.26999 6.79004,28.23001 4.52997,5.96997 10.10998,8.95001 16.75,8.94 7.12994,0.01 13.14996,-3.04998 18.05999,-9.17004 4.90998,-6.11999 7.35999,-15.17999 7.35999,-27.19998 0,-12.53998 -2.35004,-21.84998 -7.04999,-27.94 -4.70001,-6.07999 -10.65002,-9.12 -17.85004,-9.12998 -6.97998,0.01 -12.73998,3 -17.26995,8.95999 -4.52002,5.98001 -6.79004,15.07999 -6.79004,27.31 z m 96.79999,-74.51001 v -29.6 H 1026.88 v 29.6 z m 0,137.60001 V 445.44 H 1026.88 v 121.12 z m 150.71992,-85.44 -28.7999,5.76 c -0.97,-6.30001 -3.18,-11.04 -6.62,-14.23999 -3.44,-3.19 -7.91,-4.79 -13.4,-4.80001 -7.3,0.01 -13.12,2.76999 -17.46,8.29 -4.34,5.51999 -6.52,14.75 -6.52,27.68 0,14.40002 2.21,24.55999 6.63,30.48999 4.4199,5.94 10.34,8.91003 17.7801,8.90002 5.5699,0.01 10.13,-1.72003 13.6699,-5.17999 3.55,-3.46002 6.06,-9.41003 7.52,-17.86005 l 28.64,5.28003 c -2.98,14.47998 -8.6901,25.40003 -17.15,32.77997 -8.46,7.38001 -19.7901,11.06006 -34,11.06006 -16.14,0 -29.01,-5.57001 -38.61,-16.75 -9.6,-11.17005 -14.4,-26.64002 -14.4,-46.41003 0,-19.97999 4.82,-35.54999 14.45,-46.69001 9.6399,-11.13 22.67,-16.69998 39.09,-16.70999 13.45,0.01 24.14,3.17999 32.08,9.5 7.94,6.32999 13.64,15.95999 17.0999,28.9 z"
       style="fill:#000000;fill-opacity:1;fill-rule:nonzero;stroke:none"
       clip-path="url(#clipPath6)" />
    <path
       id="path7"
       d="M 0,0 V -167.2 H 30.719999 V 0 Z M 90.239998,0 V -138.88 H 44.959999 V -167.2 H 165.92 v 28.32 H 120.96 V 0 Z"
       style="fill:#ffffff;fill-opacity:1;fill-rule:nonzero;stroke:none"
       transform="translate(1270.08,566.55999)"
       clip-path="url(#clipPath8)" />
  </g>
</svg>
