<?xml version="1.0" encoding="UTF-8"?>
<svg id="Layer_1" xmlns="http://www.w3.org/2000/svg" version="1.1" xmlns:xlink="http://www.w3.org/1999/xlink" viewBox="0 0 1190.52 841.92">
  <!-- Generator: Adobe Illustrator 29.8.1, SVG Export Plug-In . SVG Version: 2.1.1 Build 2)  -->
  <defs>
    <style>
      .st0 {
        fill: #fff;
      }

      .st1, .st2, .st3 {
        fill: none;
      }

      .st4 {
        clip-path: url(#clippath-1);
      }

      .st2 {
        stroke: #ff7f00;
        stroke-width: .38px;
      }

      .st2, .st3 {
        stroke-linecap: round;
        stroke-linejoin: round;
      }

      .st5 {
        fill: url(#linear-gradient);
        stroke: #fff46a;
        stroke-miterlimit: 10;
      }

      .st3 {
        stroke: #fff;
        stroke-width: 1.32px;
      }

      .st6 {
        clip-path: url(#clippath-2);
      }

      .st7 {
        clip-path: url(#clippath);
      }
    </style>
    <clipPath id="clippath">
      <rect class="st1" y=".24" width="1190.28" height="841.68"/>
    </clipPath>
    <linearGradient id="linear-gradient" x1="888.12" y1="359.34" x2="1123.8" y2="359.34" gradientUnits="userSpaceOnUse">
      <stop offset=".45" stop-color="#ff7f00"/>
      <stop offset=".75" stop-color="#ffc13c"/>
      <stop offset="1" stop-color="#fff46a"/>
      <stop offset="1" stop-color="#f5eb66"/>
      <stop offset="1" stop-color="#c7bf53"/>
      <stop offset="1" stop-color="#9c9641"/>
      <stop offset="1" stop-color="#777131"/>
      <stop offset="1" stop-color="#565224"/>
      <stop offset="1" stop-color="#3b3818"/>
      <stop offset="1" stop-color="#25230f"/>
      <stop offset="1" stop-color="#141308"/>
      <stop offset="1" stop-color="#080803"/>
      <stop offset="1" stop-color="#010100"/>
      <stop offset="1" stop-color="#000"/>
    </linearGradient>
    <clipPath id="clippath-1">
      <rect class="st1" x="97.2" y="266.4" width="803.52" height="195.6"/>
    </clipPath>
    <clipPath id="clippath-2">
      <rect class="st1" x="900.72" y="266.4" width="176.28" height="195.6"/>
    </clipPath>
  </defs>
  <g class="st7">
    <polygon class="st5" points="888.12 443.76 888.12 274.92 888.12 273.6 888.24 272.16 888.48 270.84 888.72 269.52 889.08 268.2 889.56 266.88 890.04 265.56 890.64 264.36 891.36 263.16 892.08 262.08 892.92 260.88 893.76 259.92 894.72 258.84 895.68 258 896.76 257.04 897.84 256.32 899.04 255.48 900.24 254.88 901.44 254.28 902.76 253.68 903.96 253.32 905.28 252.96 906.72 252.6 908.04 252.36 909.36 252.24 910.8 252.24 1101.12 252.24 1102.56 252.24 1104 252.48 1105.32 252.6 1106.76 252.96 1108.08 253.32 1109.4 253.8 1110.72 254.4 1112.04 255 1113.24 255.72 1114.44 256.56 1115.52 257.4 1116.6 258.36 1117.68 259.44 1118.52 260.52 1119.48 261.6 1120.2 262.8 1120.92 264 1121.64 265.32 1122.24 266.52 1122.72 267.96 1123.08 269.28 1123.44 270.72 1123.56 272.04 1123.68 273.48 1123.8 274.92 1123.8 443.76 1123.8 445.08 1123.56 446.4 1123.44 447.84 1123.08 449.16 1122.72 450.48 1122.36 451.8 1121.76 453 1121.16 454.2 1120.56 455.4 1119.72 456.6 1119 457.68 1118.04 458.76 1117.2 459.72 1116.12 460.68 1115.04 461.52 1113.96 462.36 1112.88 463.08 1111.68 463.8 1110.36 464.4 1109.16 464.88 1107.84 465.36 1106.52 465.72 1105.2 465.96 1103.88 466.2 1102.44 466.32 1101.12 466.44 910.8 466.44 909.36 466.32 908.04 466.2 906.72 465.96 905.28 465.72 903.96 465.36 902.76 464.88 901.44 464.4 900.24 463.8 899.04 463.08 897.84 462.36 896.76 461.52 895.68 460.68 894.72 459.72 893.76 458.76 892.92 457.68 892.08 456.6 891.36 455.4 890.64 454.2 890.04 453 889.56 451.8 889.08 450.48 888.72 449.16 888.48 447.84 888.24 446.4 888.12 445.08 888.12 443.76"/>
    <polygon class="st2" points="888.12 443.76 888.12 274.92 888.12 273.6 888.24 272.16 888.48 270.84 888.72 269.52 889.08 268.2 889.56 266.88 890.04 265.56 890.64 264.36 891.36 263.16 892.08 262.08 892.92 260.88 893.76 259.92 894.72 258.84 895.68 258 896.76 257.04 897.84 256.32 899.04 255.48 900.24 254.88 901.44 254.28 902.76 253.68 903.96 253.32 905.28 252.96 906.72 252.6 908.04 252.36 909.36 252.24 910.8 252.24 1101.12 252.24 1102.56 252.24 1104 252.48 1105.32 252.6 1106.76 252.96 1108.08 253.32 1109.4 253.8 1110.72 254.4 1112.04 255 1113.24 255.72 1114.44 256.56 1115.52 257.4 1116.6 258.36 1117.68 259.44 1118.52 260.52 1119.48 261.6 1120.2 262.8 1120.92 264 1121.64 265.32 1122.24 266.52 1122.72 267.96 1123.08 269.28 1123.44 270.72 1123.56 272.04 1123.68 273.48 1123.8 274.92 1123.8 443.76 1123.8 445.08 1123.56 446.4 1123.44 447.84 1123.08 449.16 1122.72 450.48 1122.36 451.8 1121.76 453 1121.16 454.2 1120.56 455.4 1119.72 456.6 1119 457.68 1118.04 458.76 1117.2 459.72 1116.12 460.68 1115.04 461.52 1113.96 462.36 1112.88 463.08 1111.68 463.8 1110.36 464.4 1109.16 464.88 1107.84 465.36 1106.52 465.72 1105.2 465.96 1103.88 466.2 1102.44 466.32 1101.12 466.44 910.8 466.44 909.36 466.32 908.04 466.2 906.72 465.96 905.28 465.72 903.96 465.36 902.76 464.88 901.44 464.4 900.24 463.8 899.04 463.08 897.84 462.36 896.76 461.52 895.68 460.68 894.72 459.72 893.76 458.76 892.92 457.68 892.08 456.6 891.36 455.4 890.64 454.2 890.04 453 889.56 451.8 889.08 450.48 888.72 449.16 888.48 447.84 888.24 446.4 888.12 445.08 888.12 443.76"/>
    <polyline class="st3" points="888.12 274.92 888.12 273.6 888.24 272.16 888.48 270.84 888.72 269.52 889.08 268.2 889.56 266.88 890.04 265.56 890.64 264.36 891.36 263.16 892.08 262.08 892.92 260.88 893.76 259.92 894.72 258.84 895.68 258 896.76 257.04 897.84 256.32 899.04 255.48 900.24 254.88 901.44 254.28 902.76 253.68 903.96 253.32 905.28 252.96 906.72 252.6 908.04 252.36 909.36 252.24 910.8 252.24 1101.12 252.24 1102.56 252.24 1104 252.48 1105.32 252.6 1106.76 252.96 1108.08 253.32 1109.4 253.8 1110.72 254.4 1112.04 255 1113.24 255.72 1114.44 256.56 1115.52 257.4 1116.6 258.36 1117.68 259.44 1118.52 260.52 1119.48 261.6 1120.2 262.8 1120.92 264 1121.64 265.32 1122.24 266.52 1122.72 267.96 1123.08 269.28 1123.44 270.72 1123.56 272.04 1123.68 273.48 1123.8 274.92 1123.8 443.76 1123.8 445.08 1123.56 446.4 1123.44 447.84 1123.08 449.16 1122.72 450.48 1122.36 451.8 1121.76 453 1121.16 454.2 1120.56 455.4 1119.72 456.6 1119 457.68 1118.04 458.76 1117.2 459.72 1116.12 460.68 1115.04 461.52 1113.96 462.36 1112.88 463.08 1111.68 463.8 1110.36 464.4 1109.16 464.88 1107.84 465.36 1106.52 465.72 1105.2 465.96 1103.88 466.2 1102.44 466.32 1101.12 466.44 910.8 466.44 909.36 466.32 908.04 466.2 906.72 465.96 905.28 465.72 903.96 465.36 902.76 464.88 901.44 464.4 900.24 463.8 899.04 463.08 897.84 462.36 896.76 461.52 895.68 460.68 894.72 459.72 893.76 458.76 892.92 457.68 892.08 456.6 891.36 455.4 890.64 454.2 890.04 453 889.56 451.8 889.08 450.48 888.72 449.16 888.48 447.84 888.24 446.4 888.12 445.08 888.12 443.76 888.12 274.92"/>
  </g>
  <g class="st4">
    <path d="M861.24,360.84l-21.6,4.32c-.73-4.73-2.39-8.28-4.96-10.68-2.58-2.39-5.93-3.59-10.05-3.6-5.48,0-9.84,2.08-13.09,6.22-3.26,4.14-4.89,11.06-4.89,20.76,0,10.8,1.66,18.42,4.97,22.87,3.31,4.46,7.75,6.68,13.33,6.68,4.18,0,7.6-1.29,10.25-3.89,2.66-2.6,4.55-7.06,5.64-13.4l21.48,3.96c-2.23,10.86-6.52,19.05-12.86,24.58-6.34,5.54-14.84,8.3-25.5,8.3-12.11,0-21.76-4.18-28.96-12.56-7.2-8.38-10.8-19.98-10.8-34.81s3.62-26.66,10.84-35.02c7.23-8.35,17-12.52,29.32-12.53,10.09,0,18.11,2.38,24.06,7.12,5.96,4.75,10.23,11.97,12.83,21.67ZM748.2,424.92v-90.84h21.96v90.84h-21.96ZM748.2,321.72v-22.2h21.96v22.2h-21.96ZM675.6,377.6c0,9.64,1.7,16.7,5.09,21.17,3.4,4.48,7.58,6.71,12.56,6.7,5.35,0,9.86-2.29,13.55-6.88,3.68-4.59,5.52-11.39,5.52-20.4s-1.76-16.39-5.29-20.95c-3.53-4.56-7.99-6.84-13.39-6.85-5.23,0-9.56,2.25-12.95,6.72-3.39,4.49-5.09,11.31-5.09,20.48ZM655.92,430.8l25.08,3.36c.42,3.23,1.38,5.45,2.88,6.65,2.08,1.72,5.35,2.59,9.83,2.59,5.72,0,10.01-.94,12.87-2.83,1.93-1.26,3.38-3.29,4.37-6.1.68-2,1.02-5.69,1.02-11.08l.1-13.31c-6.59,9.89-14.88,14.83-24.85,14.83-11.11,0-19.92-5.15-26.42-15.48-5.08-8.15-7.63-18.29-7.63-30.44,0-15.22,3.34-26.85,10.01-34.89,6.68-8.04,14.98-12.06,24.89-12.07,10.24,0,18.68,4.93,25.34,14.77v-12.73h20.52v81.5c0,10.73-.8,18.74-2.42,24.04-1.61,5.3-3.88,9.47-6.79,12.48-2.91,3.02-6.8,5.39-11.67,7.1-4.87,1.71-11.03,2.57-18.47,2.57-14.06,0-24.02-2.64-29.9-7.93-5.88-5.29-8.83-11.99-8.83-20.12,0-.79.03-1.77.08-2.92ZM585.24,379.5c0,9.02,1.96,15.93,5.86,20.71,3.91,4.8,8.72,7.19,14.45,7.19,5.73,0,10.54-2.39,14.42-7.19,3.89-4.79,5.82-11.74,5.82-20.88s-1.94-15.74-5.82-20.54c-3.88-4.79-8.69-7.19-14.42-7.19-5.73,0-10.55,2.41-14.45,7.19-3.91,4.8-5.86,11.7-5.86,20.71ZM562.8,378.22c0-7.97,1.8-15.7,5.38-23.17,3.59-7.46,8.68-13.16,15.26-17.1,6.59-3.93,13.93-5.9,22.05-5.91,12.55,0,22.83,4.47,30.84,13.39,8.02,8.93,12.02,20.2,12.02,33.82s-4.04,25.14-12.14,34.17c-8.09,9.04-18.28,13.55-30.57,13.55-7.6,0-14.84-1.88-21.74-5.64-6.89-3.76-12.14-9.27-15.73-16.54-3.59-7.26-5.38-16.12-5.38-26.56ZM527.04,424.92v-125.4h21.96v125.4h-21.96ZM490.56,424.92h-21.96v-90.84h20.4v12.91c3.48-6.09,6.61-10.11,9.38-12.04,2.78-1.94,5.92-2.9,9.45-2.91,4.99,0,9.79,1.52,14.41,4.54l-6.78,20.99c-3.68-2.62-7.11-3.93-10.28-3.94-3.06,0-5.65.94-7.78,2.78-2.13,1.86-3.8,5.2-5.02,10.04-1.21,4.85-1.83,14.99-1.83,30.43v28.03ZM436.68,371.64c-.16-6.93-1.8-12.2-4.93-15.82-3.13-3.61-6.94-5.42-11.42-5.42-4.79,0-8.75,1.91-11.89,5.71-3.13,3.82-4.67,8.99-4.61,15.52h32.85ZM435.36,396l21.84,3.96c-2.8,8.8-7.24,15.51-13.3,20.11-6.06,4.6-13.63,6.89-22.74,6.89-14.4,0-25.06-5.15-31.97-15.47-5.46-8.27-8.19-18.7-8.19-31.3,0-15.05,3.59-26.83,10.77-35.36,7.18-8.52,16.25-12.79,27.23-12.79,12.33,0,22.06,4.47,29.18,13.38,7.12,8.93,10.54,22.58,10.22,40.98h-54.96c.16,7.13,1.93,12.67,5.31,16.63,3.38,3.96,7.6,5.94,12.64,5.93,3.44,0,6.32-1.01,8.66-3.06,2.34-2.04,4.11-5.34,5.31-9.9ZM318,377.54c0,9.42,1.36,16.38,4.07,20.88,3.82,6.4,8.89,9.59,15.21,9.59,4.86,0,9.01-2.26,12.43-6.79,3.42-4.53,5.13-11.68,5.13-21.44,0-10.38-1.73-17.87-5.17-22.46-3.45-4.59-7.86-6.89-13.25-6.9-5.28,0-9.67,2.25-13.17,6.73-3.49,4.48-5.25,11.29-5.25,20.41ZM296.4,424.92v-125.4h21.96v45.17c6.76-8.43,14.76-12.64,24-12.65,10.08,0,18.42,4.01,25.02,12.02s9.9,19.51,9.9,34.5-3.36,27.46-10.1,35.84c-6.73,8.39-14.89,12.56-24.51,12.56-4.72,0-9.39-1.29-13.99-3.88-4.6-2.58-8.56-6.41-11.89-11.5v13.33h-20.4ZM204.72,334.08h23.28l19.86,64.48,19.38-64.48h22.68l-29.21,87.4-5.28,15.79c-1.92,5.31-3.76,9.37-5.5,12.16-1.74,2.8-3.75,5.06-6.02,6.8-2.26,1.74-5.05,3.1-8.35,4.07-3.31.97-7.04,1.46-11.21,1.46s-8.35-.48-12.42-1.46l-1.92-18.85c3.43.74,6.53,1.1,9.29,1.1,5.1,0,8.88-1.63,11.32-4.9,2.45-3.27,4.32-7.43,5.62-12.5l-31.52-91.08ZM181.92,378.84l22.44,7.8c-3.44,13.69-9.14,23.85-17.12,30.49-7.98,6.65-18.1,9.95-30.38,9.95-15.18,0-27.65-5.68-37.43-17.05-9.77-11.37-14.66-26.91-14.66-46.64,0-20.85,4.91-37.05,14.74-48.6,9.82-11.53,22.73-17.31,38.74-17.32,13.98,0,25.33,4.53,34.06,13.57,5.21,5.35,9.11,13.03,11.7,23.03l-22.8,6c-1.35-6.48-4.18-11.6-8.47-15.36-4.29-3.75-9.51-5.63-15.65-5.64-8.48,0-15.36,3.34-20.64,10.01-5.28,6.67-7.92,17.48-7.92,32.42,0,15.86,2.6,27.16,7.79,33.88,5.2,6.73,11.96,10.1,20.27,10.09,6.14,0,11.41-2.13,15.83-6.42,4.42-4.27,7.59-11.02,9.51-20.22Z"/>
  </g>
  <g class="st6">
    <path class="st0" d="M1020.24,424.92v-104.16h-33.96v-21.24h90.72v21.24h-33.72v104.16h-23.04ZM952.56,424.92v-125.4h23.04v125.4h-23.04Z"/>
  </g>
</svg>